Parada.2012.XViD.AVi.-MaXLinE

Torrent od: nasi-torrenti.net

Film u reziji Srdjana Dragojevica.Film prati grupu gej aktivista koji pokusavaju da organizuju Paradu ponosa u Beogradu. Kada policija odbije da obezbedjuje skup, oni se obracaju Limunu (Kojo), vlasniku agencije za obezbedjenje i ratnom veteranu.

Screens:
 
http://www.dodaj.rs/f/1x/SE/2ku8Y0Ib/parada2012xvidavi-maxlin.jpg


Info:

Video
ID                               : 0
Format                           : MPEG-4 Visual
Format settings, BVOP            : 1
Format settings, QPel            : No
Format settings, GMC             : No warppoints
Format settings, Matrix          : Default (H.263)
Muxing mode                      : Packed bitstream
Codec ID                         : DX50
Codec ID/Hint                    : DivX 5
Duration                         : 1h 49mn
Bit rate                         : 735 Kbps
Width                            : 720 pixels
Height                           : 304 pixels
Display aspect ratio             : 2.35:1
Frame rate                       : 25.000 fps
Color space                      : YUV
Chroma subsampling               : 4:2:0
Bit depth                        : 8 bits
Scan type                        : Progressive
Compression mode                 : Lossy
Bits/(Pixel*Frame)               : 0.134
Stream size                      : 576 MiB (85%)
Title                            : Video 
Writing library                  : DivX 3330


Audio
ID                               : 1
Format                           : MPEG Audio
Format version                   : Version 1
Format profile                   : Layer 3
Mode                             : Joint stereo
Mode extension                   : MS Stereo
Codec ID                         : 55
Codec ID/Hint                    : MP3
Duration                         : 1h 49mn
Bit rate mode                    : Constant
Bit rate                         : 128 Kbps
Channel(s)                       : 2 channels
Sampling rate                    : 44.1 KHz
Compression mode                 : Lossy
Stream size                      : 100 MiB (15%)
Alignment                        : Split accross interleaves
Interleave, duration             : 40 ms (1.00 video frame)
Interleave, preload duration     : 500 ms
Title                            : Audio 
Writing library                  : LAME3.92

- Nakon torrenta od 400 MB, evo delim sa vama i ovaj od 700 MB.
Cisto da ne bi bilo zabune film je u .DIVX formatu, a ne u AVI... U svakom slucaju ako vas bude bunilo da li ce raditi ili ne, znajte da sam testirao na mom DVD playeru starom 2 i po godine, i otvara flim bez problema. Film sam prebacio u maximalnu rezoluciju koja je podrzljiva na Playerima tako da sam u neku ruku svima dozvolio da mogu komotno da gledaju gde god to hteli, a naravno pre svega za sve vas koji niste stigli da odgledate u bioskopu. Na kraju zelim samo sve da Vas zamolim da ovaj TORRENT ce iskljucivo zavisiti od Vas jer iako seedujem sa Seedboxa, moracu da stopiram kad se bude nakupilo bar Vas 50-oro a i u ovom trenutku znam da ce Vas biti i previse nego dovoljno jer znam da je DivX keva za svakog jer to je na nasim prostorima i dalje pojam :D strasno! LOL
Ako vam treba jos po nesto registrujte se kod nas na: nasi-torrenti.net

LONG LIVE PIRATE BAY!!! <3

MaXLiNe. Srbija